<svg width="197" height="879" viewBox="0 0 197 879" fill="none" xmlns="http://www.w3.org/2000/svg">
<path opacity="0.5" d="M190.4 683.793L191.399 683.843L191.399 683.843L190.4 683.793ZM190.4 718.593L189.402 718.652L189.402 718.656L190.4 718.593ZM185.6 718.293L186.528 717.922L186.523 717.907L186.516 717.893L185.6 718.293ZM164.9 717.693L164.477 716.787L164.469 716.791L164.9 717.693ZM110.9 743.493L110.469 742.591L109.9 742.863L109.9 743.493L110.9 743.493ZM110.9 815.193L109.9 815.193L109.9 815.851L110.504 816.112L110.9 815.193ZM152 832.893L152.398 831.976L152.396 831.975L152 832.893ZM190.4 823.293L189.402 823.235L189.401 823.241L190.4 823.293ZM190.4 861.393L189.401 861.449L189.402 861.46L190.4 861.393ZM184.4 862.593L185.285 862.128L185.281 862.119L185.276 862.111L184.4 862.593ZM173 851.193L172.445 852.025L172.445 852.025L173 851.193ZM149.3 839.193L148.907 840.113L148.91 840.114L149.3 839.193ZM1.09999 775.893L0.545292 776.725L0.622197 776.777L0.707195 776.813L1.09999 775.893ZM1.09999 771.393L1.41621 772.342L1.47589 772.322L1.5326 772.295L1.09999 771.393ZM149.9 699.993L149.478 699.087L149.467 699.092L149.9 699.993ZM179.6 682.593L178.922 681.859L178.922 681.859L179.6 682.593ZM104.6 812.493L104.205 813.412L105.6 814.012L105.6 812.493L104.6 812.493ZM104.6 746.493L105.6 746.493L105.6 744.905L104.168 745.592L104.6 746.493ZM32 781.293L31.5677 780.392L29.5829 781.343L31.6052 782.212L32 781.293ZM188.4 666.093C188.4 666.019 188.413 666.002 188.407 666.016C188.398 666.033 188.388 666.036 188.405 666.025C188.464 665.986 188.68 665.893 189.2 665.893L189.2 663.893C188.52 663.893 187.836 664.001 187.295 664.361C186.683 664.769 186.4 665.402 186.4 666.093L188.4 666.093ZM189.2 665.893C189.72 665.893 189.936 665.986 189.995 666.025C190.012 666.036 190.002 666.033 189.993 666.016C189.986 666.002 190 666.019 190 666.093L192 666.093C192 665.402 191.717 664.769 191.105 664.361C190.564 664.001 189.88 663.893 189.2 663.893L189.2 665.893ZM190 666.093C190 669.867 189.801 675.746 189.401 683.743L191.399 683.843C191.799 675.841 192 669.92 192 666.093L190 666.093ZM189.401 683.743C189.001 691.746 188.8 697.667 188.8 701.493L190.8 701.493C190.8 697.72 190.999 691.841 191.399 683.843L189.401 683.743ZM188.8 701.493C188.8 706.12 189.001 711.841 189.402 718.652L191.398 718.535C190.999 711.746 190.8 706.067 190.8 701.493L188.8 701.493ZM189.402 718.656C189.801 725.048 190 730.024 190 733.593L192 733.593C192 729.962 191.799 724.938 191.398 718.531L189.402 718.656ZM190 733.593C190 733.668 189.986 733.684 189.993 733.671C190.002 733.654 190.012 733.65 189.995 733.661C189.936 733.701 189.72 733.793 189.2 733.793L189.2 735.793C189.88 735.793 190.564 735.686 191.105 735.325C191.717 734.917 192 734.285 192 733.593L190 733.593ZM189.2 733.793C188.68 733.793 188.464 733.701 188.405 733.661C188.388 733.65 188.398 733.654 188.407 733.671C188.413 733.684 188.4 733.668 188.4 733.593L186.4 733.593C186.4 734.285 186.683 734.917 187.295 735.325C187.836 735.686 188.52 735.793 189.2 735.793L189.2 733.793ZM188.4 733.593C188.4 726.384 187.806 721.115 186.528 717.922L184.672 718.665C185.794 721.472 186.4 726.402 186.4 733.593L188.4 733.593ZM186.516 717.893C185.756 716.154 184.695 714.788 183.305 713.861C181.913 712.933 180.261 712.493 178.4 712.493L178.4 714.493C179.939 714.493 181.187 714.853 182.195 715.525C183.205 716.199 184.044 717.232 184.684 718.694L186.516 717.893ZM178.4 712.493C175.162 712.493 170.487 713.982 164.477 716.787L165.323 718.6C171.313 715.804 175.638 714.493 178.4 714.493L178.4 712.493ZM164.469 716.791L110.469 742.591L111.331 744.396L165.331 718.596L164.469 716.791ZM109.9 743.493L109.9 815.193L111.9 815.193L111.9 743.493L109.9 743.493ZM110.504 816.112L151.604 833.812L152.396 831.975L111.296 814.275L110.504 816.112ZM151.602 833.811C157.691 836.449 163.328 837.793 168.5 837.793L168.5 835.793C163.672 835.793 158.309 834.537 152.398 831.976L151.602 833.811ZM168.5 837.793C175.103 837.793 180.16 835.226 183.514 830.063C186.818 824.975 188.4 817.47 188.4 807.693L186.4 807.693C186.4 817.317 184.832 824.362 181.836 828.974C178.89 833.511 174.497 835.793 168.5 835.793L168.5 837.793ZM188.4 807.693C188.4 807.4 188.479 807.346 188.49 807.337C188.536 807.298 188.714 807.193 189.2 807.193L189.2 805.193C188.486 805.193 187.764 805.338 187.21 805.8C186.621 806.291 186.4 806.986 186.4 807.693L188.4 807.693ZM189.2 807.193C189.686 807.193 189.864 807.298 189.91 807.337C189.921 807.346 190 807.4 190 807.693L192 807.693C192 806.986 191.779 806.291 191.19 805.8C190.636 805.338 189.914 805.193 189.2 805.193L189.2 807.193ZM190 807.693C190 811.264 189.801 816.44 189.402 823.235L191.398 823.352C191.799 816.546 192 811.323 192 807.693L190 807.693ZM189.401 823.241C189.001 830.853 188.8 837.471 188.8 843.093L190.8 843.093C190.8 837.516 190.999 830.934 191.399 823.346L189.401 823.241ZM188.8 843.093C188.8 848.118 189.001 854.238 189.402 861.449L191.398 861.338C190.999 854.149 190.8 848.069 190.8 843.093L188.8 843.093ZM189.402 861.46C189.801 867.446 190 872.523 190 876.693L192 876.693C192 872.464 191.799 867.34 191.398 861.327L189.402 861.46ZM190 876.693C190 876.986 189.921 877.041 189.91 877.05C189.864 877.088 189.686 877.193 189.2 877.193L189.2 879.193C189.914 879.193 190.636 879.048 191.19 878.587C191.779 878.096 192 877.4 192 876.693L190 876.693ZM189.2 877.193C188.714 877.193 188.536 877.088 188.49 877.05C188.479 877.041 188.4 876.986 188.4 876.693L186.4 876.693C186.4 877.4 186.621 878.096 187.21 878.587C187.764 879.048 188.486 879.193 189.2 879.193L189.2 877.193ZM188.4 876.693C188.4 870.979 187.38 866.108 185.285 862.128L183.515 863.059C185.42 866.678 186.4 871.208 186.4 876.693L188.4 876.693ZM185.276 862.111C182.973 857.924 179.036 854.015 173.555 850.361L172.445 852.025C177.764 855.571 181.427 859.263 183.524 863.075L185.276 862.111ZM173.555 850.361C168.078 846.71 160.112 842.682 149.69 838.272L148.91 840.114C159.288 844.505 167.122 848.476 172.445 852.025L173.555 850.361ZM149.693 838.274L1.49279 774.974L0.707195 776.813L148.907 840.113L149.693 838.274ZM1.65469 775.061C1.47863 774.944 1.19998 774.584 1.19998 773.493L-0.800016 773.493C-0.800016 774.803 -0.478656 776.043 0.545292 776.725L1.65469 775.061ZM1.19998 773.493C1.19998 772.959 1.2693 772.637 1.34413 772.462C1.37865 772.382 1.40661 772.351 1.41334 772.344C1.41678 772.341 1.41444 772.343 1.41621 772.342L0.783768 770.445C0.157828 770.653 -0.256673 771.12 -0.494158 771.674C-0.719335 772.2 -0.800016 772.827 -0.800016 773.493L1.19998 773.493ZM1.5326 772.295L150.333 700.895L149.467 699.092L0.667378 770.492L1.5326 772.295ZM150.322 700.9C164.927 694.097 174.954 688.243 180.278 683.328L178.922 681.859C173.846 686.544 164.073 692.289 149.478 699.087L150.322 700.9ZM180.278 683.328C185.651 678.368 188.4 672.613 188.4 666.093L186.4 666.093C186.4 671.974 183.949 677.218 178.922 681.859L180.278 683.328ZM105.6 812.493L105.6 746.493L103.6 746.493L103.6 812.493L105.6 812.493ZM104.168 745.592L31.5677 780.392L32.4322 782.195L105.032 747.395L104.168 745.592ZM31.6052 782.212L104.205 813.412L104.995 811.575L32.3948 780.375L31.6052 782.212ZM181.4 588.579L182.281 589.051L181.4 588.579ZM146 626.379L146.497 627.246L146.504 627.242L146.511 627.238L146 626.379ZM45.8 624.579L45.2349 625.404L45.2427 625.409L45.8 624.579ZM12.2 583.779L13.1108 583.365L13.1067 583.357L12.2 583.779ZM3.19997 496.179L4.17715 496.391L4.17979 496.379L4.18212 496.367L3.19997 496.179ZM11.3 473.079L12.1575 473.593L12.1772 473.56L12.1944 473.526L11.3 473.079ZM13.4 470.379L13.7162 471.327L13.9402 471.253L14.1071 471.086L13.4 470.379ZM17.9 469.479L17.9767 470.476L17.9918 470.474L18.0068 470.473L17.9 469.479ZM54.2 465.579L54.2 464.579L54.1464 464.579L54.0931 464.584L54.2 465.579ZM55.4 467.379L54.4136 467.543L54.4162 467.559L54.4194 467.575L55.4 467.379ZM54.8 469.178L55.0885 470.136L55.1024 470.132L55.1162 470.127L54.8 469.178ZM19.1 491.378L18.351 490.716L18.351 490.716L19.1 491.378ZM15.8 574.179L14.9291 574.67L14.9326 574.676L15.8 574.179ZM46.1 603.279L45.6211 604.156L45.6315 604.162L46.1 603.279ZM140.6 603.279L141.023 604.185L141.028 604.182L140.6 603.279ZM176.6 572.379L177.428 572.939L177.433 572.932L177.438 572.925L176.6 572.379ZM182.3 494.078L183.02 493.385L183.02 493.384L182.3 494.078ZM131.9 487.779L132.175 488.74L132.203 488.732L132.23 488.722L131.9 487.779ZM123.5 496.179L124.449 496.495L124.453 496.482L123.5 496.179ZM117.5 520.479L116.945 521.311L116.997 521.345L117.053 521.373L117.5 520.479ZM116.6 519.279L115.602 519.216L115.6 519.247L115.6 519.279L116.6 519.279ZM117.2 450.579L116.2 450.579L116.2 450.607L116.202 450.635L117.2 450.579ZM119.3 449.378L119.3 450.378L119.371 450.378L119.441 450.368L119.3 449.378ZM121.4 450.579L122.399 450.62L122.4 450.599L122.4 450.579L121.4 450.579ZM123.5 460.778L124.289 460.164L124.281 460.154L123.5 460.778ZM175.7 464.378L175.856 465.366L175.881 465.362L175.906 465.357L175.7 464.378ZM185.3 463.779L184.593 464.486L184.593 464.486L185.3 463.779ZM186.5 466.479L187.477 466.266L187.47 466.235L187.462 466.204L186.5 466.479ZM193.6 530.679C193.6 552.745 189.227 571.877 180.519 588.106L182.281 589.051C191.173 572.48 195.6 553.012 195.6 530.679L193.6 530.679ZM180.519 588.106C171.798 604.359 160.12 616.819 145.489 625.519L146.511 627.238C161.48 618.338 173.402 605.598 182.281 589.051L180.519 588.106ZM145.503 625.511C130.66 634.021 114.333 638.279 96.5 638.279L96.5 640.279C114.667 640.279 131.34 635.936 146.497 627.246L145.503 625.511ZM96.5 638.279C77.4794 638.279 60.7774 633.427 46.3573 623.748L45.2427 625.409C60.0226 635.33 77.1205 640.279 96.5 640.279L96.5 638.279ZM46.3651 623.753C31.9259 613.864 20.8406 600.411 13.1107 583.366L11.2893 584.192C19.1594 601.546 30.474 615.293 45.2349 625.404L46.3651 623.753ZM13.1067 583.357C5.17558 566.305 1.19997 547.152 1.19997 525.879L-0.800027 525.879C-0.800026 547.405 3.22438 566.852 11.2933 584.2L13.1067 583.357ZM1.19997 525.879C1.19997 515.341 2.19408 505.513 4.17715 496.391L2.22279 495.966C0.205865 505.244 -0.800027 515.216 -0.800027 525.879L1.19997 525.879ZM4.18212 496.367C5.96761 487.042 8.63556 479.463 12.1575 473.593L10.4425 472.564C6.76438 478.694 4.03233 486.515 2.21781 495.99L4.18212 496.367ZM12.1944 473.526C12.5795 472.755 12.9208 472.195 13.2143 471.817C13.3601 471.63 13.4818 471.504 13.5772 471.423C13.6742 471.341 13.7208 471.326 13.7162 471.327L13.0837 469.43C12.4986 469.625 12.0224 470.092 11.6356 470.59C11.2292 471.112 10.8204 471.802 10.4055 472.631L12.1944 473.526ZM14.1071 471.086C14.0533 471.139 14.0595 471.107 14.2519 471.036C14.4229 470.973 14.6741 470.903 15.0211 470.834C15.7137 470.696 16.6931 470.574 17.9767 470.476L17.8233 468.481C16.5069 468.583 15.4362 468.711 14.6289 468.873C14.2259 468.954 13.8646 469.047 13.5605 469.159C13.278 469.263 12.9466 469.418 12.6929 469.671L14.1071 471.086ZM18.0068 470.473L54.3068 466.573L54.0931 464.584L17.7932 468.484L18.0068 470.473ZM54.2 466.579C54.1742 466.579 54.1331 466.57 54.098 466.549C54.0696 466.531 54.0811 466.528 54.1179 466.583C54.2033 466.711 54.323 466.999 54.4136 467.543L56.3864 467.214C56.277 466.558 56.0967 465.946 55.782 465.474C55.4395 464.96 54.905 464.579 54.2 464.579L54.2 466.579ZM54.4194 467.575C54.504 467.998 54.4723 468.199 54.4513 468.262C54.4445 468.283 54.4457 468.269 54.4679 468.246C54.49 468.224 54.504 468.223 54.4837 468.23L55.1162 470.127C55.7148 469.928 56.1491 469.493 56.3487 468.895C56.5276 468.358 56.4959 467.759 56.3806 467.182L54.4194 467.575ZM54.5114 468.221C39.7516 472.669 27.686 480.163 18.351 490.716L19.849 492.041C28.9139 481.794 40.6484 474.488 55.0885 470.136L54.5114 468.221ZM18.351 490.716C8.95316 501.34 4.29998 515.395 4.29998 532.779L6.29998 532.779C6.29998 515.762 10.8468 502.217 19.849 492.041L18.351 490.716ZM4.29998 532.779C4.29998 548.139 7.83876 562.11 14.9291 574.67L16.6708 573.687C9.7612 561.447 6.29998 547.818 6.29998 532.779L4.29998 532.779ZM14.9326 574.676C22.0309 587.047 32.2706 596.874 45.6211 604.156L46.5788 602.401C33.5293 595.283 23.569 585.71 16.6673 573.681L14.9326 574.676ZM45.6315 604.162C58.9979 611.25 74.4636 614.779 92 614.779L92 612.779C74.7364 612.779 59.6021 609.307 46.5685 602.395L45.6315 604.162ZM92 614.779C109.538 614.779 125.884 611.25 141.023 604.185L140.177 602.372C125.316 609.307 109.262 612.779 92 612.779L92 614.779ZM141.028 604.182C155.99 597.106 168.128 586.687 177.428 572.939L175.772 571.818C166.672 585.27 154.81 595.451 140.172 602.375L141.028 604.182ZM177.438 572.925C186.56 558.937 191.1 542.24 191.1 522.879L189.1 522.879C189.1 541.917 184.64 558.22 175.762 571.832L177.438 572.925ZM191.1 522.879C191.1 509.015 188.5 499.076 183.02 493.385L181.58 494.772C186.499 499.881 189.1 509.142 189.1 522.879L191.1 522.879ZM183.02 493.384C177.329 487.483 167.377 484.678 153.5 484.678L153.5 486.678C167.223 486.678 176.471 489.474 181.58 494.773L183.02 493.384ZM153.5 484.678C143.104 484.678 135.748 485.372 131.57 486.835L132.23 488.722C136.052 487.385 143.096 486.678 153.5 486.678L153.5 484.678ZM131.625 486.817C127.082 488.115 124.042 491.178 122.547 495.875L124.453 496.482C125.758 492.379 128.318 489.842 132.175 488.74L131.625 486.817ZM122.551 495.862C121.094 500.234 120.4 507.984 120.4 518.979L122.4 518.979C122.4 507.973 123.106 500.523 124.449 496.495L122.551 495.862ZM120.4 518.979C120.4 519.335 120.296 519.456 120.2 519.528C120.049 519.641 119.704 519.778 119 519.778L119 521.778C119.896 521.778 120.751 521.616 121.4 521.129C122.103 520.601 122.4 519.822 122.4 518.979L120.4 518.979ZM119 519.778C118.505 519.778 118.169 519.695 117.947 519.584L117.053 521.373C117.631 521.662 118.295 521.778 119 521.778L119 519.778ZM118.055 519.646C117.811 519.484 117.684 519.357 117.625 519.279C117.572 519.208 117.6 519.213 117.6 519.279L115.6 519.279C115.6 520.209 116.285 520.87 116.945 521.311L118.055 519.646ZM117.598 519.341C118.599 503.331 119.1 490.408 119.1 480.579L117.1 480.579C117.1 490.349 116.601 503.226 115.602 519.216L117.598 519.341ZM119.1 480.579C119.1 471.157 118.799 461.138 118.198 450.522L116.202 450.635C116.801 461.219 117.1 471.2 117.1 480.579L119.1 480.579ZM118.2 450.579C118.2 450.528 118.21 450.532 118.195 450.557C118.181 450.582 118.174 450.574 118.221 450.547C118.346 450.475 118.662 450.378 119.3 450.378L119.3 448.378C118.538 448.378 117.804 448.482 117.229 448.81C116.57 449.187 116.2 449.816 116.2 450.579L118.2 450.579ZM119.441 450.368C120.07 450.279 120.321 450.364 120.379 450.397C120.387 450.402 120.386 450.402 120.381 450.397C120.376 450.392 120.374 450.387 120.374 450.388C120.376 450.391 120.4 450.442 120.4 450.579L122.4 450.579C122.4 449.821 122.111 449.083 121.371 448.66C120.729 448.293 119.93 448.278 119.159 448.389L119.441 450.368ZM120.401 450.537C120.199 455.392 120.883 459.108 122.719 461.403L124.281 460.154C122.917 458.449 122.201 455.365 122.399 450.62L120.401 450.537ZM122.711 461.392C124.374 463.531 127.742 464.766 132.371 465.37L132.629 463.387C128.058 462.791 125.426 461.626 124.289 460.165L122.711 461.392ZM132.371 465.37C137.042 465.979 145.101 466.279 156.5 466.279L156.5 464.279C145.099 464.279 137.158 463.978 132.629 463.387L132.371 465.37ZM156.5 466.279C165.502 466.279 171.971 465.98 175.856 465.366L175.544 463.391C171.829 463.977 165.498 464.279 156.5 464.279L156.5 466.279ZM175.906 465.357C179.742 464.549 182.027 464.178 182.9 464.178L182.9 462.178C181.773 462.178 179.257 462.608 175.494 463.4L175.906 465.357ZM182.9 464.178C183.452 464.178 183.864 464.225 184.157 464.299C184.457 464.374 184.567 464.459 184.593 464.486L186.007 463.071C185.633 462.698 185.143 462.483 184.643 462.358C184.136 462.232 183.548 462.178 182.9 462.178L182.9 464.178ZM184.593 464.486C184.665 464.557 184.805 464.751 184.986 465.16C185.161 465.552 185.346 466.079 185.538 466.753L187.462 466.204C187.254 465.478 187.039 464.855 186.814 464.347C186.595 463.856 186.335 463.4 186.007 463.071L184.593 464.486ZM185.523 466.691C190.913 491.447 193.6 512.772 193.6 530.679L195.6 530.679C195.6 512.585 192.887 491.11 187.477 466.266L185.523 466.691ZM3.49997 211.839L2.49997 211.839L2.49997 211.852L2.50027 211.864L3.49997 211.839ZM14.6 230.139L13.9753 230.92L13.9793 230.923L14.6 230.139ZM195.5 239.439L196.141 240.207L196.175 240.178L196.207 240.147L195.5 239.439ZM28.1 379.239L28.7 380.039L28.7209 380.024L28.741 380.007L28.1 379.239ZM26.9 380.139L26.3 379.339L23.9 381.139L26.9 381.139L26.9 380.139ZM180.2 374.439L180.821 375.223L180.821 375.223L180.2 374.439ZM190.7 368.139L189.703 368.068L189.701 368.094L189.7 368.12L190.7 368.139ZM190.4 383.439L189.4 383.42L189.4 383.439L189.4 383.458L190.4 383.439ZM190.7 399.339L189.7 399.358L189.701 399.382L189.702 399.406L190.7 399.339ZM180.2 393.639L179.56 394.408L179.569 394.416L179.579 394.423L180.2 393.639ZM19.1 387.639L19.1 386.639L18.6785 386.639L18.3842 386.941L19.1 387.639ZM3.49998 412.539L2.50034 412.512L2.49998 412.526L2.49998 412.539L3.49998 412.539ZM3.79998 401.439L2.80343 401.356L2.8011 401.384L2.80034 401.412L3.79998 401.439ZM4.09997 391.239L5.09997 391.239L5.09997 391.229L5.09974 391.218L4.09997 391.239ZM3.79997 377.139L4.79975 377.118L4.79865 377.067L4.79225 377.015L3.79997 377.139ZM4.69996 367.539L5.29997 368.339L5.41425 368.254L5.49996 368.139L4.69996 367.539ZM9.19998 363.939L9.75468 364.772L9.75468 364.772L9.19998 363.939ZM19.1 356.739L19.7247 357.52L19.7306 357.516L19.7365 357.511L19.1 356.739ZM156.5 243.339L157.137 244.111L159.283 242.339L156.5 242.339L156.5 243.339ZM14.6 248.739L15.1843 249.551L15.1922 249.545L15.2 249.539L14.6 248.739ZM3.49997 266.439L2.5003 266.414L2.49997 266.427L2.49997 266.439L3.49997 266.439ZM3.79997 254.739L2.80192 254.677L2.80077 254.695L2.8003 254.714L3.79997 254.739ZM3.79997 224.139L2.80026 224.164L2.80073 224.183L2.80191 224.202L3.79997 224.139ZM4.49997 211.839C4.49997 211.864 4.49085 211.931 4.44452 212C4.40237 212.064 4.36582 212.075 4.39719 212.059C4.43247 212.041 4.51736 212.009 4.67687 211.982C4.83368 211.956 5.03895 211.939 5.29997 211.939L5.29997 209.939C4.64889 209.939 4.01171 210.016 3.50275 210.27C3.23412 210.404 2.97257 210.603 2.78042 210.891C2.58409 211.185 2.49997 211.514 2.49997 211.839L4.49997 211.839ZM5.29997 211.939C5.56098 211.939 5.76625 211.956 5.92306 211.982C6.08257 212.009 6.16746 212.041 6.20274 212.059C6.23411 212.075 6.19756 212.064 6.15541 212C6.10908 211.931 6.09996 211.864 6.09996 211.839L8.09996 211.839C8.09996 211.514 8.01584 211.185 7.81951 210.891C7.62736 210.603 7.36581 210.404 7.09718 210.27C6.58822 210.016 5.95104 209.939 5.29997 209.939L5.29997 211.939ZM6.09996 211.839C6.09996 220.251 8.67405 226.679 13.9753 230.92L15.2247 229.359C10.5259 225.6 8.09996 219.828 8.09996 211.839L6.09996 211.839ZM13.9793 230.923C19.0424 234.932 26.9177 236.839 37.4 236.839L37.4 234.839C27.0823 234.839 19.7575 232.947 15.2207 229.355L13.9793 230.923ZM37.4 236.839L194.6 236.839L194.6 234.839L37.4 234.839L37.4 236.839ZM194.6 236.839C194.606 236.839 194.589 236.84 194.565 236.828C194.543 236.817 194.546 236.811 194.569 236.839C194.627 236.912 194.734 237.109 194.819 237.536L196.781 237.143C196.666 236.57 196.473 236.017 196.131 235.59C195.756 235.121 195.226 234.839 194.6 234.839L194.6 236.839ZM194.819 237.536C195.005 238.464 194.817 238.708 194.793 238.732L196.207 240.147C196.982 239.371 196.995 238.215 196.781 237.143L194.819 237.536ZM194.859 238.672L27.459 378.472L28.741 380.007L196.141 240.207L194.859 238.672ZM27.5 378.439L26.3 379.339L27.5 380.939L28.7 380.039L27.5 378.439ZM26.9 381.139L157.4 381.139L157.4 379.139L26.9 379.139L26.9 381.139ZM157.4 381.139C167.882 381.139 175.758 379.232 180.821 375.223L179.579 373.655C175.042 377.247 167.718 379.139 157.4 379.139L157.4 381.139ZM180.821 375.223C185.93 371.179 188.4 364.944 188.4 356.739L186.4 356.739C186.4 364.535 184.07 370.1 179.579 373.655L180.821 375.223ZM188.4 356.739C188.4 356.764 188.391 356.831 188.345 356.9C188.302 356.964 188.266 356.975 188.297 356.959C188.332 356.941 188.417 356.909 188.577 356.882C188.734 356.856 188.939 356.839 189.2 356.839L189.2 354.839C188.549 354.839 187.912 354.916 187.403 355.17C187.134 355.304 186.873 355.503 186.68 355.791C186.484 356.085 186.4 356.414 186.4 356.739L188.4 356.739ZM189.2 356.839C189.461 356.839 189.666 356.856 189.823 356.882C189.983 356.909 190.067 356.941 190.103 356.959C190.134 356.975 190.098 356.964 190.055 356.9C190.009 356.831 190 356.764 190 356.739L192 356.739C192 356.414 191.916 356.085 191.72 355.791C191.527 355.503 191.266 355.304 190.997 355.17C190.488 354.916 189.851 354.839 189.2 354.839L189.2 356.839ZM190 356.739C190 361.53 189.9 365.303 189.703 368.068L191.697 368.211C191.9 365.376 192 361.549 192 356.739L190 356.739ZM189.7 368.12L189.4 383.42L191.4 383.459L191.7 368.159L189.7 368.12ZM189.4 383.458L189.7 399.358L191.7 399.321L191.4 383.421L189.4 383.458ZM189.702 399.406C189.9 402.372 190 406.646 190 412.239L192 412.239C192 406.633 191.9 402.306 191.698 399.273L189.702 399.406ZM190 412.239C190 412.057 190.08 411.895 190.18 411.795C190.256 411.719 190.303 411.718 190.234 411.741C190.09 411.789 189.771 411.839 189.2 411.839L189.2 413.839C189.829 413.839 190.41 413.79 190.866 413.638C191.297 413.495 192 413.104 192 412.239L190 412.239ZM189.2 411.839C188.629 411.839 188.31 411.789 188.166 411.741C188.097 411.718 188.144 411.719 188.22 411.795C188.319 411.895 188.4 412.057 188.4 412.239L186.4 412.239C186.4 413.104 187.103 413.495 187.534 413.638C187.99 413.79 188.571 413.839 189.2 413.839L189.2 411.839ZM188.4 412.239C188.4 403.464 185.947 396.913 180.821 392.855L179.579 394.423C184.053 397.965 186.4 403.815 186.4 412.239L188.4 412.239ZM180.84 392.871C175.775 388.65 167.891 386.639 157.4 386.639L157.4 388.639C167.709 388.639 175.025 390.629 179.56 394.408L180.84 392.871ZM157.4 386.639L19.1 386.639L19.1 388.639L157.4 388.639L157.4 386.639ZM18.3842 386.941C10.2696 395.259 6.09997 403.795 6.09997 412.539L8.09997 412.539C8.09997 404.483 11.9303 396.42 19.8158 388.338L18.3842 386.941ZM6.09997 412.539C6.09997 412.514 6.10909 412.448 6.15542 412.379C6.19757 412.315 6.23412 412.304 6.20276 412.32C6.16747 412.338 6.08258 412.37 5.92307 412.397C5.76626 412.423 5.56099 412.439 5.29997 412.439L5.29997 414.439C5.95105 414.439 6.58822 414.363 7.09719 414.109C7.36582 413.975 7.62736 413.776 7.81952 413.488C8.01585 413.193 8.09997 412.864 8.09997 412.539L6.09997 412.539ZM5.29997 412.439C5.03896 412.439 4.83369 412.423 4.67688 412.397C4.51737 412.37 4.43248 412.338 4.39719 412.32C4.36582 412.304 4.40237 412.315 4.44453 412.379C4.49086 412.448 4.49998 412.514 4.49998 412.539L2.49998 412.539C2.49998 412.864 2.5841 413.193 2.78043 413.488C2.97258 413.776 3.23413 413.975 3.50276 414.109C4.01172 414.363 4.6489 414.439 5.29997 414.439L5.29997 412.439ZM4.49961 412.566L4.79961 401.466L2.80034 401.412L2.50034 412.512L4.49961 412.566ZM4.79652 401.522C4.99997 399.081 5.09997 395.649 5.09997 391.239L3.09997 391.239C3.09997 395.63 2.99997 398.998 2.80343 401.356L4.79652 401.522ZM5.09974 391.218L4.79975 377.118L2.8002 377.161L3.1002 391.261L5.09974 391.218ZM4.79225 377.015C4.59953 375.474 4.49998 373.42 4.49998 370.839L2.49998 370.839C2.49998 373.459 2.60042 375.605 2.8077 377.263L4.79225 377.015ZM4.49998 370.839C4.49998 369.364 4.87276 368.66 5.29997 368.339L4.09996 366.739C2.92719 367.619 2.49998 369.115 2.49998 370.839L4.49998 370.839ZM5.49996 368.139C5.72221 367.843 6.1669 367.407 6.89966 366.82C7.61893 366.245 8.5681 365.563 9.75468 364.772L8.64528 363.107C7.43184 363.916 6.43102 364.634 5.65028 365.259C4.88304 365.872 4.27771 366.436 3.89996 366.939L5.49996 368.139ZM9.75468 364.772C13.3758 362.357 16.6995 359.94 19.7247 357.52L18.4753 355.959C15.5005 358.338 12.2242 360.721 8.64528 363.107L9.75468 364.772ZM19.7365 357.511L157.137 244.111L155.863 242.568L18.4634 355.968L19.7365 357.511ZM156.5 242.339L37.4 242.339L37.4 244.339L156.5 244.339L156.5 242.339ZM37.4 242.339C26.9255 242.339 19.0598 244.145 14 247.939L15.2 249.539C19.7401 246.134 27.0744 244.339 37.4 244.339L37.4 242.339ZM14.0157 247.928C8.67273 251.775 6.09996 258.034 6.09996 266.439L8.09996 266.439C8.09996 258.445 10.5272 252.904 15.1843 249.551L14.0157 247.928ZM6.09996 266.439C6.09996 266.257 6.18044 266.095 6.28035 265.995C6.3557 265.919 6.40278 265.918 6.33373 265.941C6.19007 265.989 5.87078 266.039 5.29997 266.039L5.29997 268.039C5.92915 268.039 6.50986 267.99 6.9662 267.838C7.39686 267.695 8.09996 267.304 8.09996 266.439L6.09996 266.439ZM5.29997 266.039C4.72915 266.039 4.40987 265.989 4.26621 265.941C4.19716 265.918 4.24424 265.919 4.31959 265.995C4.4195 266.095 4.49997 266.257 4.49997 266.439L2.49997 266.439C2.49997 267.304 3.20308 267.695 3.63374 267.838C4.09008 267.99 4.67079 268.039 5.29997 268.039L5.29997 266.039ZM4.49964 266.465L4.79964 254.765L2.8003 254.714L2.5003 266.414L4.49964 266.465ZM4.79802 254.802C5.19856 248.393 5.39996 243.27 5.39996 239.439L3.39996 239.439C3.39996 243.209 3.20136 248.286 2.80192 254.677L4.79802 254.802ZM5.39996 239.439C5.39996 235.609 5.19856 230.486 4.79802 224.077L2.80191 224.202C3.20136 230.593 3.39996 235.67 3.39996 239.439L5.39996 239.439ZM4.79967 224.115L4.49967 211.815L2.50027 211.864L2.80026 224.164L4.79967 224.115ZM2.89995 35.5777L3.87874 35.7826L3.88146 35.7696L3.88382 35.7566L2.89995 35.5777ZM11.3 9.77772L10.4317 9.28158L10.4132 9.31404L10.3971 9.34779L11.3 9.77772ZM13.7 7.37773L13.9425 8.34788L14.1105 8.30587L14.2547 8.20978L13.7 7.37773ZM18.2 6.47773L18.283 7.47427L18.2945 7.47332L18.3059 7.4721L18.2 6.47773ZM54.8 2.57772L54.8 1.57772L54.7468 1.57772L54.694 1.58335L54.8 2.57772ZM56 4.37772L55.0136 4.54212L55.0162 4.55802L55.0194 4.57383L56 4.37772ZM55.1 6.17773L54.8574 5.20759L54.8378 5.21249L54.8184 5.21818L55.1 6.17773ZM47.9 140.278L47.4476 141.17L47.4527 141.172L47.9 140.278ZM143.6 139.378L144.057 140.267L144.067 140.262L143.6 139.378ZM177.5 108.778L178.342 109.317L178.342 109.317L177.5 108.778ZM178.1 28.0777L178.888 27.4627L178.887 27.4606L178.1 28.0777ZM141.2 3.77772L141.54 2.83727L141.528 2.833L141.516 2.82904L141.2 3.77772ZM141.5 0.477727L141.589 -0.518311L141.545 -0.522273L141.5 -0.522273L141.5 0.477727ZM175.1 3.47772L175.264 2.49133L175.227 2.48507L175.189 2.48168L175.1 3.47772ZM179.9 4.67772L179.453 5.57215L179.516 5.60393L179.584 5.62641L179.9 4.67772ZM182 7.07771L182.905 6.65191L182.888 6.61602L182.868 6.58157L182 7.07771ZM191.9 36.1777L190.919 36.3697L190.921 36.38L190.923 36.3901L191.9 36.1777ZM182.6 123.478L183.49 123.934L183.493 123.927L183.497 123.921L182.6 123.478ZM147.8 162.178L148.323 163.03L148.329 163.026L148.336 163.022L147.8 162.178ZM46.4 161.878L45.8586 162.719L45.8586 162.719L46.4 161.878ZM12.5 122.878L13.4008 122.444L13.3986 122.439L12.5 122.878ZM1.19995 66.4777C1.19995 54.5234 2.0969 44.2958 3.87874 35.7826L1.92116 35.3729C0.103005 44.0596 -0.800047 54.432 -0.800047 66.4777L1.19995 66.4777ZM3.88382 35.7566C5.4674 27.0469 8.23926 18.5311 12.2028 10.2077L10.3971 9.34779C6.36065 17.8243 3.53251 26.5085 1.91608 35.3988L3.88382 35.7566ZM12.1682 10.2739C12.947 8.91088 13.5682 8.44144 13.9425 8.34788L13.4574 6.40759C12.2317 6.71402 11.2529 7.84458 10.4317 9.28158L12.1682 10.2739ZM14.2547 8.20978C14.3802 8.12609 14.7377 7.97998 15.4711 7.83331C16.1689 7.69375 17.1021 7.57268 18.283 7.47427L18.1169 5.48118C16.8978 5.58277 15.881 5.7117 15.0788 5.87215C14.3122 6.02548 13.6197 6.22937 13.1453 6.54569L14.2547 8.20978ZM18.3059 7.4721L54.9059 3.57209L54.694 1.58335L18.094 5.48336L18.3059 7.4721ZM54.8 3.57772C54.7742 3.57772 54.733 3.56876 54.698 3.54771C54.6696 3.5307 54.681 3.52714 54.7179 3.58242C54.8033 3.71047 54.923 3.99855 55.0136 4.54212L56.9863 4.21331C56.8769 3.55689 56.6966 2.94497 56.382 2.47302C56.0395 1.95931 55.505 1.57772 54.8 1.57772L54.8 3.57772ZM55.0194 4.57383C55.0973 4.96349 55.0411 5.10929 55.0305 5.13051C55.0282 5.13517 55.0278 5.13687 55.018 5.14399C55.0038 5.15432 54.9587 5.18227 54.8574 5.20759L55.3425 7.14787C55.955 6.99474 56.5094 6.64487 56.8194 6.02493C57.1088 5.44614 57.1026 4.79194 56.9805 4.1816L55.0194 4.57383ZM54.8184 5.21818C37.9827 10.158 25.2588 17.8738 16.7467 28.4248C8.22742 38.9846 3.99996 52.294 3.99996 68.2777L5.99996 68.2777C5.99996 52.6615 10.1225 39.8208 18.3033 29.6806C26.4911 19.5316 38.8172 11.9975 55.3815 7.13728L54.8184 5.21818ZM3.99996 68.2777C3.99996 84.6356 7.73789 99.117 15.2413 111.69L16.9587 110.665C9.66204 98.4385 5.99996 84.3198 5.99996 68.2777L3.99996 68.2777ZM15.2413 111.69C22.7451 124.264 33.4916 134.09 47.4476 141.17L48.3523 139.386C34.7083 132.465 24.2548 122.891 16.9587 110.665L15.2413 111.69ZM47.4527 141.172C61.2164 148.054 77.275 151.478 95.6 151.478L95.6 149.478C77.5249 149.478 61.7836 146.101 48.3472 139.383L47.4527 141.172ZM95.6 151.478C113.345 151.478 129.504 147.746 144.057 140.267L143.143 138.488C128.896 145.809 113.055 149.478 95.6 149.478L95.6 151.478ZM144.067 140.262C158.608 132.587 170.042 122.273 178.342 109.317L176.658 108.238C168.558 120.882 157.392 130.968 143.133 138.493L144.067 140.262ZM178.342 109.317C186.645 96.3562 190.8 82.169 190.8 66.7777L188.8 66.7777C188.8 81.7865 184.755 95.5993 176.658 108.238L178.342 109.317ZM190.8 66.7777C190.8 50.8108 186.856 37.6779 178.888 27.4627L177.311 28.6927C184.944 38.4775 188.8 51.1446 188.8 66.7777L190.8 66.7777ZM178.887 27.4606C170.736 17.0688 158.255 8.87872 141.54 2.83727L140.86 4.71817C157.345 10.6767 169.464 18.6866 177.313 28.6948L178.887 27.4606ZM141.516 2.82904C141.496 2.82227 141.51 2.82345 141.532 2.84561C141.554 2.86778 141.555 2.88179 141.549 2.86149C141.528 2.79839 141.496 2.59709 141.581 2.17384L139.619 1.78161C139.504 2.35836 139.472 2.95706 139.651 3.49395C139.851 4.09256 140.285 4.52687 140.884 4.72641L141.516 2.82904ZM141.581 2.17384C141.672 1.71517 141.77 1.47168 141.832 1.36722C141.861 1.32044 141.856 1.345 141.8 1.38521C141.731 1.43422 141.624 1.47773 141.5 1.47773L141.5 -0.522273C140.803 -0.522273 140.358 -0.0623989 140.117 0.33823C139.88 0.733769 139.728 1.24028 139.619 1.78161L141.581 2.17384ZM141.411 1.47376L175.011 4.47376L175.189 2.48168L141.589 -0.518311L141.411 1.47376ZM174.936 4.46412C177.351 4.86665 178.806 5.24889 179.453 5.57215L180.347 3.7833C179.394 3.30654 177.649 2.88879 175.264 2.49133L174.936 4.46412ZM179.584 5.62641C179.636 5.64395 179.819 5.73943 180.122 6.08623C180.412 6.41748 180.75 6.90531 181.132 7.57385L182.868 6.58157C182.45 5.85012 182.038 5.23796 181.628 4.76921C181.231 4.31601 180.764 3.9115 180.216 3.72904L179.584 5.62641ZM181.095 7.50351C185.867 17.6435 189.137 27.2648 190.919 36.3697L192.881 35.9857C191.063 26.6906 187.733 16.9119 182.905 6.65191L181.095 7.50351ZM190.923 36.3901C192.905 45.5076 193.9 55.7347 193.9 67.0777L195.9 67.0777C195.9 55.6207 194.895 45.2479 192.877 35.9653L190.923 36.3901ZM193.9 67.0777C193.9 87.9448 189.827 106.59 181.703 123.035L183.497 123.921C191.773 107.165 195.9 88.2106 195.9 67.0777L193.9 67.0777ZM181.71 123.022C173.387 139.272 161.906 152.034 147.264 161.334L148.336 163.022C163.294 153.521 175.013 140.484 183.49 123.934L181.71 123.022ZM147.277 161.325C132.449 170.42 115.533 174.978 96.5 174.978L96.5 176.978C115.867 176.978 133.151 172.335 148.323 163.03L147.277 161.325ZM96.5 174.978C77.8754 174.978 61.3665 170.324 46.9413 161.037L45.8586 162.719C60.6334 172.231 77.5245 176.978 96.5 176.978L96.5 174.978ZM46.9413 161.037C32.5059 151.743 21.3259 138.888 13.4008 122.444L11.5991 123.312C19.6741 140.067 31.094 153.213 45.8586 162.719L46.9413 161.037ZM13.3986 122.439C5.2725 105.79 1.19995 87.143 1.19995 66.4777L-0.800047 66.4777C-0.800046 87.4124 3.32742 106.365 11.6013 123.316L13.3986 122.439Z" fill="#B1B1B1"/>
</svg>
