<svg width="197" height="879" fill="none" xmlns="http://www.w3.org/2000/svg"><path opacity=".5" d="m190.4 683.793.999.05-.999-.05Zm0 34.8-.998.059v.004l.998-.063Zm-4.8-.3.928-.371-.005-.015-.007-.014-.916.4Zm-20.7-.6-.423-.906-.008.004.431.902Zm-54 25.8-.431-.902-.569.272v.63h1Zm0 71.7h-1v.658l.604.261.396-.919Zm41.1 17.7.398-.917-.002-.001-.396.918Zm38.4-9.6-.998-.058-.001.006.999.052Zm0 38.1-.999.056.001.011.998-.067Zm-6 1.2.885-.465-.004-.009-.005-.008-.876.482Zm-11.4-11.4-.555.832.555-.832Zm-23.7-12-.393.92.003.001.39-.921Zm-148.2-63.3-.555.832.077.052.085.036.393-.92Zm0-4.5.316.949.06-.02.057-.027-.433-.902Zm148.8-71.4-.422-.906-.011.005.433.901Zm29.7-17.4-.678-.734.678.734Zm-75 129.9-.395.919 1.395.6v-1.519h-1Zm0-66h1v-1.588l-1.432.687.432.901Zm-72.6 34.8-.432-.901-1.985.951 2.022.869.395-.919Zm156.4-115.2c0-.074.013-.091.007-.077-.009.017-.019.02-.002.009.059-.039.275-.132.795-.132v-2c-.68 0-1.364.108-1.905.468-.612.408-.895 1.041-.895 1.732h2Zm.8-.2c.52 0 .736.093.795.132.017.011.007.008-.002-.009-.007-.014.007.003.007.077h2c0-.691-.283-1.324-.895-1.732-.541-.36-1.225-.468-1.905-.468v2Zm.8.2c0 3.774-.199 9.653-.599 17.65l1.998.1c.4-8.002.601-13.923.601-17.75h-2Zm-.599 17.65c-.4 8.003-.601 13.924-.601 17.75h2c0-3.773.199-9.652.599-17.65l-1.998-.1Zm-.601 17.75c0 4.627.201 10.348.602 17.159l1.996-.117c-.399-6.789-.598-12.468-.598-17.042h-2Zm.602 17.163c.399 6.392.598 11.368.598 14.937h2c0-3.631-.201-8.655-.602-15.062l-1.996.125Zm.598 14.937c0 .075-.014.091-.007.078.009-.017.019-.021.002-.01-.059.04-.275.132-.795.132v2c.68 0 1.364-.107 1.905-.468.612-.408.895-1.04.895-1.732h-2Zm-.8.2c-.52 0-.736-.092-.795-.132-.017-.011-.007-.007.002.01.006.013-.007-.003-.007-.078h-2c0 .692.283 1.324.895 1.732.541.361 1.225.468 1.905.468v-2Zm-.8-.2c0-7.209-.594-12.478-1.872-15.671l-1.856.743c1.122 2.807 1.728 7.737 1.728 14.928h2Zm-1.884-15.7c-.76-1.739-1.821-3.105-3.211-4.032-1.392-.928-3.044-1.368-4.905-1.368v2c1.539 0 2.787.36 3.795 1.032 1.01.674 1.849 1.707 2.489 3.169l1.832-.801Zm-8.116-5.4c-3.238 0-7.913 1.489-13.923 4.294l.846 1.813c5.99-2.796 10.315-4.107 13.077-4.107v-2Zm-13.931 4.298-54 25.8.862 1.805 54-25.8-.862-1.805ZM109.9 743.493v71.7h2v-71.7h-2Zm.604 72.619 41.1 17.7.792-1.837-41.1-17.7-.792 1.837Zm41.098 17.699c6.089 2.638 11.726 3.982 16.898 3.982v-2c-4.828 0-10.191-1.256-16.102-3.817l-.796 1.835Zm16.898 3.982c6.603 0 11.66-2.567 15.014-7.73 3.304-5.088 4.886-12.593 4.886-22.37h-2c0 9.624-1.568 16.669-4.564 21.281-2.946 4.537-7.339 6.819-13.336 6.819v2Zm19.9-30.1c0-.293.079-.347.09-.356.046-.039.224-.144.71-.144v-2c-.714 0-1.436.145-1.99.607-.589.491-.81 1.186-.81 1.893h2Zm.8-.5c.486 0 .664.105.71.144.011.009.09.063.09.356h2c0-.707-.221-1.402-.81-1.893-.554-.462-1.276-.607-1.99-.607v2Zm.8.5c0 3.571-.199 8.747-.598 15.542l1.996.117c.401-6.806.602-12.029.602-15.659h-2Zm-.599 15.548c-.4 7.612-.601 14.23-.601 19.852h2c0-5.577.199-12.159.599-19.747l-1.998-.105Zm-.601 19.852c0 5.025.201 11.145.602 18.356l1.996-.111c-.399-7.189-.598-13.269-.598-18.245h-2Zm.602 18.367c.399 5.986.598 11.063.598 15.233h2c0-4.229-.201-9.353-.602-15.366l-1.996.133Zm.598 15.233c0 .293-.079.348-.09.357-.046.038-.224.143-.71.143v2c.714 0 1.436-.145 1.99-.606.589-.491.81-1.187.81-1.894h-2Zm-.8.5c-.486 0-.664-.105-.71-.143-.011-.009-.09-.064-.09-.357h-2c0 .707.221 1.403.81 1.894.554.461 1.276.606 1.99.606v-2Zm-.8-.5c0-5.714-1.02-10.585-3.115-14.565l-1.77.931c1.905 3.619 2.885 8.149 2.885 13.634h2Zm-3.124-14.582c-2.303-4.187-6.24-8.096-11.721-11.75l-1.11 1.664c5.319 3.546 8.982 7.238 11.079 11.05l1.752-.964Zm-11.721-11.75c-5.477-3.651-13.443-7.679-23.865-12.089l-.78 1.842c10.378 4.391 18.212 8.362 23.535 11.911l1.11-1.664Zm-23.862-12.087-148.2-63.3-.786 1.839 148.2 63.3.786-1.839ZM1.655 775.061c-.176-.117-.455-.477-.455-1.568h-2c0 1.31.321 2.55 1.345 3.232l1.11-1.664Zm-.455-1.568c0-.534.07-.856.144-1.031a.399.399 0 0 1 .07-.118l.002-.002-.632-1.897c-.626.208-1.04.675-1.278 1.229-.225.526-.306 1.153-.306 1.819h2Zm.333-1.198 148.8-71.4-.866-1.803-148.8 71.4.866 1.803ZM150.322 700.9c14.605-6.803 24.632-12.657 29.956-17.572l-1.356-1.469c-5.076 4.685-14.849 10.43-29.444 17.228l.844 1.813Zm29.956-17.572c5.373-4.96 8.122-10.715 8.122-17.235h-2c0 5.881-2.451 11.125-7.478 15.766l1.356 1.469ZM105.6 812.493v-66h-2v66h2Zm-1.432-66.901-72.6 34.8.864 1.803 72.6-34.8-.864-1.803Zm-72.563 36.62 72.6 31.2.79-1.837-72.6-31.2-.79 1.837ZM181.4 588.579l.881.472-.881-.472Zm-35.4 37.8.497.867.007-.004.007-.004-.511-.859Zm-100.2-1.8-.565.825.008.005.557-.83Zm-33.6-40.8.91-.414-.003-.008-.907.422Zm-9-87.6.977.212.003-.012.002-.012-.982-.188Zm8.1-23.1.857.514.02-.033.017-.034-.894-.447Zm2.1-2.7.316.948.224-.074.167-.167-.707-.707Zm4.5-.9.077.997.015-.002.015-.001-.107-.994Zm36.3-3.9v-1h-.054l-.053.005.107.995Zm1.2 1.8-.986.164.002.016.003.016.981-.196Zm-.6 1.799.289.958.013-.004.014-.005-.316-.949Zm-35.7 22.2-.749-.662.749.662Zm-3.3 82.801-.87.491.003.006.867-.497Zm30.3 29.1-.479.877.01.006.469-.883Zm94.5 0 .423.906.005-.003-.428-.903Zm36-30.9.828.56.005-.007.005-.007-.838-.546Zm5.7-78.301.72-.693v-.001l-.72.694Zm-50.4-6.299.275.961.028-.008.027-.01-.33-.943Zm-8.4 8.4.949.316.004-.013-.953-.303Zm-6 24.3-.555.832.052.034.056.028.447-.894Zm-.9-1.2-.998-.063-.002.031v.032h1Zm.6-68.7h-1v.028l.002.028.998-.056Zm2.1-1.201v1h.071l.07-.01-.141-.99Zm2.1 1.201.999.041.001-.021v-.02h-1Zm2.1 10.199.789-.614-.008-.01-.781.624Zm52.2 3.6.156.988.025-.004.025-.005-.206-.979Zm9.6-.599-.707.707.707-.707Zm1.2 2.7.977-.213-.007-.031-.008-.031-.962.275Zm7.1 64.2c0 22.066-4.373 41.198-13.081 57.427l1.762.945c8.892-16.571 13.319-36.039 13.319-58.372h-2Zm-13.081 57.427c-8.721 16.253-20.399 28.713-35.03 37.413l1.022 1.719c14.969-8.9 26.891-21.64 35.77-38.187l-1.762-.945Zm-35.016 37.405c-14.843 8.51-31.17 12.768-49.003 12.768v2c18.167 0 34.84-4.343 49.997-13.033l-.994-1.735ZM96.5 638.279c-19.02 0-35.723-4.852-50.143-14.531l-1.114 1.661c14.78 9.921 31.878 14.87 51.257 14.87v-2Zm-50.135-14.526c-14.44-9.889-25.524-23.342-33.254-40.387l-1.822.826c7.87 17.354 19.185 31.101 33.946 41.212l1.13-1.651Zm-33.258-40.396C5.176 566.305 1.2 547.152 1.2 525.879h-2c0 21.526 4.024 40.973 12.093 58.321l1.814-.843ZM1.2 525.879c0-10.538.994-20.366 2.977-29.488l-1.954-.425C.206 505.244-.8 515.216-.8 525.879h2Zm2.982-29.512c1.786-9.325 4.454-16.904 7.976-22.774l-1.715-1.029c-3.679 6.13-6.41 13.951-8.225 23.426l1.964.377Zm8.012-22.841c.385-.771.727-1.331 1.02-1.709.146-.187.268-.313.363-.394.097-.082.144-.097.14-.096l-.633-1.897c-.585.195-1.062.662-1.448 1.16-.407.522-.816 1.212-1.23 2.041l1.788.895Zm1.913-2.44c-.054.053-.047.021.145-.05a5.23 5.23 0 0 1 .77-.202c.692-.138 1.671-.26 2.955-.358l-.154-1.995c-1.316.102-2.387.23-3.194.392a7.329 7.329 0 0 0-1.069.286c-.282.104-.613.259-.867.512l1.414 1.415Zm3.9-.613 36.3-3.9-.214-1.989-36.3 3.9.214 1.989Zm36.193-3.894a.216.216 0 0 1-.102-.03c-.028-.018-.017-.021.02.034.085.128.205.416.296.96l1.972-.329c-.109-.656-.29-1.268-.604-1.74-.342-.514-.877-.895-1.582-.895v2Zm.22.996c.084.423.052.624.031.687-.007.021-.005.007.017-.016.022-.022.036-.023.016-.016l.632 1.897a1.9 1.9 0 0 0 1.233-1.232c.179-.537.147-1.136.032-1.713l-1.962.393Zm.091.646c-14.76 4.448-26.825 11.942-36.16 22.495l1.498 1.325c9.065-10.247 20.8-17.553 35.24-21.905l-.578-1.915Zm-36.16 22.495C8.953 501.34 4.3 515.395 4.3 532.779h2c0-17.017 4.547-30.562 13.549-40.738l-1.498-1.325ZM4.3 532.779c0 15.36 3.539 29.331 10.63 41.891l1.74-.983C9.762 561.447 6.3 547.818 6.3 532.779h-2Zm10.633 41.897c7.098 12.371 17.338 22.198 30.688 29.48l.958-1.755c-13.05-7.118-23.01-16.691-29.912-28.72l-1.734.995Zm30.699 29.486C58.998 611.25 74.464 614.779 92 614.779v-2c-17.264 0-32.398-3.472-45.431-10.384l-.938 1.767ZM92 614.779c17.538 0 33.884-3.529 49.023-10.594l-.846-1.813c-14.861 6.935-30.915 10.407-48.177 10.407v2Zm49.028-10.597c14.962-7.076 27.1-17.495 36.4-31.243l-1.656-1.121c-9.1 13.452-20.962 23.633-35.6 30.557l.856 1.807Zm36.41-31.257c9.122-13.988 13.662-30.685 13.662-50.046h-2c0 19.038-4.46 35.341-13.338 48.953l1.676 1.093Zm13.662-50.046c0-13.864-2.6-23.803-8.08-29.494l-1.44 1.387c4.919 5.109 7.52 14.37 7.52 28.107h2Zm-8.08-29.495c-5.691-5.901-15.643-8.706-29.52-8.706v2c13.723 0 22.971 2.796 28.08 8.095l1.44-1.389Zm-29.52-8.706c-10.396 0-17.752.694-21.93 2.157l.66 1.887c3.822-1.337 10.866-2.044 21.27-2.044v-2Zm-21.875 2.139c-4.543 1.298-7.583 4.361-9.078 9.058l1.906.607c1.305-4.103 3.865-6.64 7.722-7.742l-.55-1.923Zm-9.074 9.045c-1.457 4.372-2.151 12.122-2.151 23.117h2c0-11.006.706-18.456 2.049-22.484l-1.898-.633Zm-2.151 23.117c0 .356-.104.477-.2.549-.151.113-.496.25-1.2.25v2c.896 0 1.751-.162 2.4-.649.703-.528 1-1.307 1-2.15h-2Zm-1.4.799c-.495 0-.831-.083-1.053-.194l-.894 1.789c.578.289 1.242.405 1.947.405v-2Zm-.945-.132c-.244-.162-.371-.289-.43-.367-.053-.071-.025-.066-.025 0h-2c0 .93.685 1.591 1.345 2.032l1.11-1.665Zm-.457-.305c1.001-16.01 1.502-28.933 1.502-38.762h-2c0 9.77-.499 22.647-1.498 38.637l1.996.125Zm1.502-38.762c0-9.422-.301-19.441-.902-30.057l-1.996.113c.599 10.584.898 20.565.898 29.944h2Zm-.9-30c0-.051.01-.047-.005-.022-.014.025-.021.017.026-.01.125-.072.441-.169 1.079-.169v-2c-.762 0-1.496.104-2.071.432a1.971 1.971 0 0 0-1.029 1.769h2Zm1.241-.211c.629-.089.88-.004.938.029.008.005.007.005.002 0l-.007-.009a.46.46 0 0 1 .026.191h2c0-.758-.289-1.496-1.029-1.919-.642-.367-1.441-.382-2.212-.271l.282 1.979Zm.96.169c-.202 4.855.482 8.571 2.318 10.866l1.562-1.249c-1.364-1.705-2.08-4.789-1.882-9.534l-1.998-.083Zm2.31 10.855c1.663 2.139 5.031 3.374 9.66 3.978l.258-1.983c-4.571-.596-7.203-1.761-8.34-3.222l-1.578 1.227Zm9.66 3.978c4.671.609 12.73.909 24.129.909v-2c-11.401 0-19.342-.301-23.871-.892l-.258 1.983Zm24.129.909c9.002 0 15.471-.299 19.356-.913l-.312-1.975c-3.715.586-10.046.888-19.044.888v2Zm19.406-.922c3.836-.808 6.121-1.179 6.994-1.179v-2c-1.127 0-3.643.43-7.406 1.222l.412 1.957Zm6.994-1.179c.552 0 .964.047 1.257.121.3.075.41.16.436.187l1.414-1.415c-.374-.373-.864-.588-1.364-.713-.507-.126-1.095-.18-1.743-.18v2Zm1.693.308c.072.071.212.265.393.674.175.392.36.919.552 1.593l1.924-.549a14.605 14.605 0 0 0-.648-1.857c-.219-.491-.479-.947-.807-1.276l-1.414 1.415Zm.93 2.205c5.39 24.756 8.077 46.081 8.077 63.988h2c0-18.094-2.713-39.569-8.123-64.413l-1.954.425ZM3.5 211.839h-1v.025l1-.025Zm11.1 18.3-.625.781.004.003.621-.784Zm180.9 9.3.641.768.034-.029.032-.031-.707-.708Zm-167.4 139.8.6.8.02-.015.021-.017-.641-.768Zm-1.2.9-.6-.8-2.4 1.8h3v-1Zm153.3-5.7.621.784-.621-.784Zm10.5-6.3-.997-.071-.002.026-.001.026 1 .019Zm-.3 15.3-1-.019v.038l1-.019Zm.3 15.9-1 .019.001.024.001.024.998-.067Zm-10.5-5.7-.64.769.009.008.01.007.621-.784Zm-161.1-6v-1h-.422l-.294.302.716.698Zm-15.6 24.9-1-.027v.027h1Zm.3-11.1-.997-.083-.002.028v.028l.999.027Zm.3-10.2h1v-.021l-1 .021Zm-.3-14.1 1-.021-.001-.051-.007-.052-.992.124Zm.9-9.6.6.8.114-.085.086-.115-.8-.6Zm4.5-3.6.555.833-.555-.833Zm9.9-7.2.625.781.006-.004.005-.005-.636-.772Zm137.4-113.4.637.772 2.146-1.772H156.5v1Zm-141.9 5.4.584.812.008-.006.008-.006-.6-.8Zm-11.1 17.7-1-.025v.025h1Zm.3-11.7-.998-.062-.001.018v.019l.999.025Zm0-30.6-1 .025v.019l.002.019.998-.063Zm.7-12.3c0 .025-.01.092-.055.161-.043.064-.08.075-.048.059.035-.018.12-.05.28-.077.157-.026.362-.043.623-.043v-2c-.651 0-1.288.077-1.797.331a1.85 1.85 0 0 0-.723.621 1.69 1.69 0 0 0-.28.948h2Zm.8.1c.261 0 .466.017.623.043.16.027.244.059.28.077.031.016-.005.005-.048-.059a.314.314 0 0 1-.055-.161h2a1.69 1.69 0 0 0-.28-.948 1.844 1.844 0 0 0-.723-.621c-.509-.254-1.146-.331-1.797-.331v2Zm.8-.1c0 8.412 2.574 14.84 7.875 19.081l1.25-1.561c-4.7-3.759-7.125-9.531-7.125-17.52h-2Zm7.88 19.084c5.062 4.009 12.938 5.916 23.42 5.916v-2c-10.318 0-17.642-1.892-22.18-5.484l-1.24 1.568Zm23.42 5.916h157.2v-2H37.4v2Zm157.2 0c.006 0-.011.001-.035-.011-.022-.011-.019-.017.004.011.058.073.165.27.25.697l1.962-.393c-.115-.573-.308-1.126-.65-1.553a1.923 1.923 0 0 0-1.531-.751v2Zm.219.697c.186.928-.002 1.172-.026 1.196l1.414 1.415c.775-.776.788-1.932.574-3.004l-1.962.393Zm.04 1.136-167.4 139.8 1.282 1.535 167.4-139.8-1.282-1.535ZM27.5 378.439l-1.2.9 1.2 1.6 1.2-.9-1.2-1.6Zm-.6 2.7h130.5v-2H26.9v2Zm130.5 0c10.482 0 18.358-1.907 23.421-5.916l-1.242-1.568c-4.537 3.592-11.861 5.484-22.179 5.484v2Zm23.421-5.916c5.109-4.044 7.579-10.279 7.579-18.484h-2c0 7.796-2.33 13.361-6.821 16.916l1.242 1.568Zm7.579-18.484a.315.315 0 0 1-.055.161c-.043.064-.079.075-.048.059.035-.018.12-.05.28-.077.157-.026.362-.043.623-.043v-2c-.651 0-1.288.077-1.797.331a1.85 1.85 0 0 0-.723.621c-.196.294-.28.623-.28.948h2Zm.8.1c.261 0 .466.017.623.043.16.027.244.059.28.077.031.016-.005.005-.048-.059a.315.315 0 0 1-.055-.161h2c0-.325-.084-.654-.28-.948a1.85 1.85 0 0 0-.723-.621c-.509-.254-1.146-.331-1.797-.331v2Zm.8-.1c0 4.791-.1 8.564-.297 11.329l1.994.143c.203-2.835.303-6.662.303-11.472h-2Zm-.3 11.381-.3 15.3 2 .039.3-15.3-2-.039Zm-.3 15.338.3 15.9 2-.037-.3-15.9-2 .037Zm.302 15.948c.198 2.966.298 7.24.298 12.833h2c0-5.606-.1-9.933-.302-12.966l-1.996.133Zm.298 12.833a.64.64 0 0 1 .18-.444c.076-.076.123-.077.054-.054-.144.048-.463.098-1.034.098v2c.629 0 1.21-.049 1.666-.201.431-.143 1.134-.534 1.134-1.399h-2Zm-.8-.4c-.571 0-.89-.05-1.034-.098-.069-.023-.022-.022.054.054.099.1.18.262.18.444h-2c0 .865.703 1.256 1.134 1.399.456.152 1.037.201 1.666.201v-2Zm-.8.4c0-8.775-2.453-15.326-7.579-19.384l-1.242 1.568c4.474 3.542 6.821 9.392 6.821 17.816h2Zm-7.56-19.368c-5.065-4.221-12.949-6.232-23.44-6.232v2c10.309 0 17.625 1.99 22.16 5.769l1.28-1.537Zm-23.44-6.232H19.1v2h138.3v-2Zm-139.016.302C10.27 395.259 6.1 403.795 6.1 412.539h2c0-8.056 3.83-16.119 11.716-24.201l-1.432-1.397ZM6.1 412.539c0-.025.01-.091.055-.16.043-.064.08-.075.048-.059-.036.018-.12.05-.28.077a3.893 3.893 0 0 1-.623.042v2c.651 0 1.288-.076 1.797-.33a1.85 1.85 0 0 0 .723-.621c.196-.295.28-.624.28-.949h-2Zm-.8-.1c-.261 0-.466-.016-.623-.042a1.045 1.045 0 0 1-.28-.077c-.031-.016.005-.005.048.059a.311.311 0 0 1 .055.16h-2c0 .325.084.654.28.949.193.288.454.487.723.621.509.254 1.146.33 1.797.33v-2Zm-.8.127.3-11.1-2-.054-.3 11.1 2 .054Zm.297-11.044c.203-2.441.303-5.873.303-10.283h-2c0 4.391-.1 7.759-.297 10.117l1.994.166Zm.303-10.304-.3-14.1-2 .043.3 14.1 2-.043Zm-.308-14.203c-.192-1.541-.292-3.595-.292-6.176h-2c0 2.62.1 4.766.308 6.424l1.984-.248Zm-.292-6.176c0-1.475.373-2.179.8-2.5l-1.2-1.6c-1.173.88-1.6 2.376-1.6 4.1h2Zm1-2.7c.222-.296.667-.732 1.4-1.319.719-.575 1.668-1.257 2.855-2.048l-1.11-1.665c-1.213.809-2.214 1.527-2.995 2.152-.767.613-1.372 1.177-1.75 1.68l1.6 1.2Zm4.255-3.367c3.62-2.415 6.944-4.832 9.97-7.252l-1.25-1.561c-2.975 2.379-6.25 4.762-9.83 7.148l1.11 1.665Zm9.981-7.261 137.401-113.4-1.274-1.543-137.4 113.4 1.273 1.543ZM156.5 242.339H37.4v2h119.1v-2Zm-119.1 0c-10.474 0-18.34 1.806-23.4 5.6l1.2 1.6c4.54-3.405 11.874-5.2 22.2-5.2v-2Zm-23.384 5.589C8.673 251.775 6.1 258.034 6.1 266.439h2c0-7.994 2.427-13.535 7.084-16.888l-1.168-1.623ZM6.1 266.439a.64.64 0 0 1 .18-.444c.076-.076.123-.077.054-.054-.144.048-.463.098-1.034.098v2c.63 0 1.21-.049 1.666-.201.43-.143 1.134-.534 1.134-1.399h-2Zm-.8-.4c-.57 0-.89-.05-1.034-.098-.069-.023-.022-.022.054.054.1.1.18.262.18.444h-2c0 .865.703 1.256 1.134 1.399.456.152 1.037.201 1.666.201v-2Zm-.8.426.3-11.7-2-.051-.3 11.7 2 .051Zm.298-11.663c.4-6.409.602-11.532.602-15.363h-2c0 3.77-.199 8.847-.598 15.238l1.996.125Zm.602-15.363c0-3.83-.201-8.953-.602-15.362l-1.996.125c.4 6.391.598 11.468.598 15.237h2Zm-.6-15.324-.3-12.3-2 .049.3 12.3 2-.049ZM2.9 35.578l.979.205.002-.013.003-.013-.984-.18Zm8.4-25.8-.868-.496-.019.032-.016.034.903.43Zm2.4-2.4.243.97.168-.042.144-.096-.555-.832Zm4.5-.9.083.996h.011l.012-.002-.106-.994Zm36.6-3.9v-1h-.053l-.053.005.106.995Zm1.2 1.8-.986.164.002.016.003.016.981-.196Zm-.9 1.8-.243-.97-.02.004-.019.006.282.96Zm-7.2 134.1-.452.892.005.002.447-.894Zm95.7-.9.457.889.01-.005-.467-.884Zm33.9-30.6.842.539-.842-.539Zm.6-80.7.788-.615-.001-.002-.787.617Zm-36.9-24.3.34-.94-.012-.005-.012-.004-.316.949Zm.3-3.3.089-.996-.044-.004h-.045v1Zm33.6 3 .164-.987-.037-.006-.038-.003-.089.996Zm4.8 1.2-.447.894.063.032.068.022.316-.948Zm2.1 2.4.905-.426-.017-.036-.02-.034-.868.496Zm9.9 29.1-.981.192.002.01.002.01.977-.212Zm-9.3 87.3.89.456.003-.007.004-.006-.897-.443Zm-34.8 38.7.523.852.006-.004.007-.004-.536-.844Zm-101.4-.3-.541.841.541-.841Zm-33.9-39 .9-.434-.001-.005-.899.439Zm-11.3-56.4c0-11.955.897-22.182 2.679-30.695l-1.958-.41C.103 44.06-.8 54.432-.8 66.478h2Zm2.684-30.721c1.583-8.71 4.355-17.226 8.319-25.55l-1.806-.86C6.361 17.825 3.533 26.51 1.917 35.4l1.967.358Zm8.284-25.483c.779-1.363 1.4-1.833 1.775-1.926l-.486-1.94c-1.225.306-2.204 1.437-3.025 2.874l1.736.992Zm2.087-2.064c.125-.084.483-.23 1.216-.377.698-.14 1.631-.26 2.812-.359l-.166-1.993c-1.22.102-2.236.23-3.038.391-.767.153-1.46.357-1.934.674l1.11 1.664Zm4.05-.738 36.6-3.9-.211-1.989-36.6 3.9.212 1.99ZM54.8 3.578a.215.215 0 0 1-.102-.03c-.028-.017-.017-.02.02.034.085.128.205.417.296.96l1.972-.329c-.11-.656-.29-1.268-.604-1.74-.343-.514-.877-.895-1.582-.895v2Zm.22.996c.077.39.021.535.01.557-.002.004-.002.006-.012.013a.476.476 0 0 1-.16.064l.485 1.94c.612-.153 1.166-.503 1.476-1.123.29-.579.284-1.233.161-1.843l-1.96.392Zm-.202.644c-16.835 4.94-29.56 12.656-38.071 23.207C8.227 38.985 4 52.294 4 68.278h2C6 52.66 10.123 39.82 18.303 29.68c8.188-10.15 20.514-17.683 37.079-22.544l-.564-1.919ZM4 68.278c0 16.358 3.738 30.839 11.241 43.412l1.718-1.025C9.662 98.438 6 84.32 6 68.278H4Zm11.241 43.412c7.504 12.574 18.25 22.4 32.207 29.48l.904-1.784c-13.644-6.921-24.097-16.495-31.393-28.721l-1.718 1.025Zm32.212 29.482c13.763 6.882 29.822 10.306 48.147 10.306v-2c-18.075 0-33.816-3.377-47.253-10.095l-.894 1.789ZM95.6 151.478c17.745 0 33.904-3.732 48.457-11.211l-.914-1.779c-14.247 7.321-30.088 10.99-47.543 10.99v2Zm48.467-11.216c14.541-7.675 25.975-17.989 34.275-30.945l-1.684-1.079c-8.1 12.644-19.266 22.73-33.525 30.255l.934 1.769Zm34.275-30.945c8.303-12.96 12.458-27.148 12.458-42.54h-2c0 15.01-4.045 28.822-12.142 41.461l1.684 1.079Zm12.458-42.54c0-15.966-3.944-29.1-11.912-39.314l-1.577 1.23c7.633 9.784 11.489 22.452 11.489 38.085h2Zm-11.913-39.316c-8.151-10.392-20.632-18.582-37.347-24.624l-.68 1.881c16.485 5.959 28.604 13.969 36.453 23.977l1.574-1.234ZM141.516 2.829c-.02-.007-.006-.006.016.017.022.022.023.036.017.015-.021-.063-.053-.264.032-.687l-1.962-.392c-.115.576-.147 1.175.032 1.712.2.599.634 1.033 1.233 1.232l.632-1.897Zm.065-.655c.091-.459.189-.702.251-.807.029-.047.024-.022-.032.018a.529.529 0 0 1-.3.093v-2c-.697 0-1.142.46-1.383.86-.237.396-.389.902-.498 1.444l1.962.392Zm-.17-.7 33.6 3 .178-1.992-33.6-3-.178 1.992Zm33.525 2.99c2.415.403 3.87.785 4.517 1.108l.894-1.789c-.953-.476-2.698-.894-5.083-1.292l-.328 1.973Zm4.648 1.162c.052.018.235.113.538.46.29.331.628.82 1.01 1.488l1.736-.992c-.418-.732-.83-1.344-1.24-1.813-.397-.453-.864-.857-1.412-1.04l-.632 1.897Zm1.511 1.878c4.772 10.14 8.042 19.76 9.824 28.866l1.962-.384c-1.818-9.295-5.148-19.074-9.976-29.334l-1.81.852Zm9.828 28.886c1.982 9.118 2.977 19.345 2.977 30.688h2c0-11.457-1.005-21.83-3.023-31.113l-1.954.425Zm2.977 30.688c0 20.867-4.073 39.512-12.197 55.957l1.794.886c8.276-16.756 12.403-35.71 12.403-56.843h-2Zm-12.19 55.944c-8.323 16.25-19.804 29.012-34.446 38.312l1.072 1.688c14.958-9.501 26.677-22.538 35.154-39.088l-1.78-.912Zm-34.433 38.303c-14.828 9.095-31.744 13.653-50.777 13.653v2c19.367 0 36.651-4.643 51.823-13.948l-1.046-1.705ZM96.5 174.978c-18.625 0-35.133-4.654-49.559-13.941l-1.082 1.682c14.774 9.512 31.666 14.259 50.641 14.259v-2Zm-49.559-13.941c-14.435-9.294-25.615-22.149-33.54-38.593l-1.802.868c8.075 16.755 19.495 29.901 34.26 39.407l1.082-1.682ZM13.4 122.439C5.274 105.79 1.2 87.143 1.2 66.478h-2c0 20.934 4.127 39.887 12.401 56.838l1.798-.877Z" fill="#B1B1B1"/></svg>