<svg width="1638" height="1142" fill="none" xmlns="http://www.w3.org/2000/svg"><path d="M1612.63 1025.1c-27.21 47.56-75.31 80.22-139.06 98.54-63.76 18.31-143.14 22.26-232.85 12.41-179.41-19.7-400.019-94.61-619.283-220.073C402.173 790.516 225.81 638.28 117.915 493.59 63.966 421.245 27.15 350.805 10.634 286.559-5.881 222.315-2.091 164.297 25.12 116.739c27.212-47.558 75.311-80.223 139.064-98.537C227.942-.113 307.325-4.064 397.031 5.788c179.411 19.705 400.02 94.614 619.289 220.075 219.26 125.461 395.62 277.696 503.52 422.386 53.95 72.346 90.76 142.786 107.28 207.032 16.51 64.244 12.72 122.261-14.49 169.819Z" stroke="#fff" style="mix-blend-mode:soft-light"/></svg>