<svg width="1638" height="1142" viewBox="0 0 1638 1142" fill="none" xmlns="http://www.w3.org/2000/svg">
<g style="mix-blend-mode:soft-light">
<path d="M1612.63 1025.1C1585.42 1072.66 1537.32 1105.32 1473.57 1123.64C1409.81 1141.95 1330.43 1145.9 1240.72 1136.05C1061.31 1116.35 840.701 1041.44 621.437 915.977C402.173 790.516 225.81 638.28 117.915 493.59C63.9662 421.245 27.1498 350.805 10.6339 286.559C-5.88114 222.315 -2.09109 164.297 25.1212 116.739C52.3334 69.1815 100.432 36.5163 164.185 18.2022C227.942 -0.112849 307.325 -4.06435 397.031 5.78811C576.442 25.4928 797.051 100.402 1016.32 225.863C1235.58 351.324 1411.94 503.559 1519.84 648.249C1573.79 720.595 1610.6 791.035 1627.12 855.281C1643.63 919.525 1639.84 977.542 1612.63 1025.1Z" stroke="white"/>
</g>
</svg>
