<svg width="38" height="39" viewBox="0 0 38 39" fill="none" xmlns="http://www.w3.org/2000/svg">
<path d="M37.0495 22.5658L9.6495 9.16577L18.0495 38.5658L22.2495 30.2658L27.8495 36.9658L33.7495 31.9658L28.1495 25.1658L37.0495 22.5658Z" fill="#E84329"/>
<path d="M5.22101 2.02617L3.45553 3.50024L7.30093 8.10584L9.06641 6.63177L5.22101 2.02617Z" fill="#E84329"/>
<path d="M11.8729 -3.75509e-05L11.3439 5.97656L13.6349 6.17936L14.1639 0.202757L11.8729 -3.75509e-05Z" fill="#E84329"/>
<path d="M20.296 3.40871L15.7 7.26611L17.1787 9.02791L21.7747 5.17051L20.296 3.40871Z" fill="#E84329"/>
<path d="M0.20784 9.73751L0 12.0281L5.9754 12.5703L6.18324 10.2797L0.20784 9.73751Z" fill="#E84329"/>
<path d="M6.73776 14.8119L2.12436 18.6477L3.59475 20.4162L8.20815 16.5804L6.73776 14.8119Z" fill="#E84329"/>
</svg>
