<svg width="80" height="30" fill="none" xmlns="http://www.w3.org/2000/svg"><path d="M4.446 20.147h8.619L15.6 29h1.833l-7.8-27.3H7.878L.078 29h1.833l2.535-8.853Zm.429-1.638L8.736 4.04l3.861 14.469H4.875Zm23.732-3.198v1.638h6.63c-.039 3.159-.39 5.967-2.262 8.541-1.13 1.56-2.613 2.652-4.758 2.652-1.482 0-3.08-.585-4.524-2.301-2.457-2.925-2.925-7.605-2.925-10.452 0-2.496.351-5.343 1.092-7.488 1.21-3.393 3.471-5.382 6.708-5.382 1.833 0 3.51.624 4.914 2.73.741 1.131 1.248 2.613 1.365 4.173h1.755c-.156-2.652-1.248-5.382-3.159-6.981-1.56-1.287-3.12-1.56-4.797-1.56-2.613 0-5.967.546-8.073 5.46-.975 2.301-1.599 5.187-1.599 9.087 0 2.301.195 4.68 1.014 7.215.468 1.521 2.418 7.137 7.761 7.137 2.184 0 3.94-.741 5.382-2.379 1.053-1.17 1.677-2.574 2.028-3.51h.117V29h1.716V15.311h-8.385ZM43.331 4.352 55.03 29h2.028V1.7h-1.716v24.648L43.682 1.7h-2.067V29h1.716V4.352Zm34.17 15.99c-.077 1.365-.467 3.12-1.364 4.641-1.56 2.652-3.666 3.198-5.226 3.198-2.847 0-4.602-2.106-5.616-3.978-.624-1.17-1.794-3.783-1.794-9.126 0-2.574.195-5.577 1.599-8.385 1.56-3.12 3.783-4.173 5.889-4.173 2.34 0 3.9 1.209 4.797 2.457.936 1.287 1.443 3.003 1.482 4.602h1.794c-.078-1.56-.546-4.914-2.886-6.942C75.2 1.817 73.524.881 70.95.881c-2.34 0-5.148.819-7.176 4.407-1.755 3.159-2.067 6.825-2.067 9.711 0 5.772 1.287 8.697 1.833 9.828 2.145 4.29 5.07 4.992 7.332 4.992 2.808 0 4.68-.975 6.2-3.003 1.99-2.652 2.185-5.85 2.224-6.474h-1.794Z" fill="#1E1E1E"/></svg>